<svg width="28" height="28" viewBox="0 0 28 28" fill="none" xmlns="http://www.w3.org/2000/svg">
<path d="M14 3C16.1756 3 18.3023 3.64514 20.1113 4.85383C21.9202 6.06253 23.3301 7.78049 24.1627 9.79048C24.9952 11.8005 25.2131 14.0122 24.7886 16.146C24.3642 18.2798 23.3166 20.2398 21.7782 21.7782C20.2398 23.3166 18.2798 24.3642 16.146 24.7886C14.0122 25.2131 11.8005 24.9952 9.79048 24.1627C7.78049 23.3301 6.06253 21.9202 4.85383 20.1113C3.64514 18.3023 3 16.1756 3 14C3 11.0826 4.15893 8.28473 6.22183 6.22183C8.28473 4.15893 11.0826 3 14 3V3Z" fill="#EFCD93"/>
<path d="M12.7823 18.9442C12.9012 18.9468 13.0186 18.9178 13.1226 18.8601C13.2266 18.8025 13.3135 18.7183 13.3743 18.6162L18.9113 9.89717C19.003 9.77038 19.0555 9.61949 19.0623 9.46317C19.0672 9.39156 19.0567 9.31972 19.0314 9.25254C19.0061 9.18536 18.9667 9.12441 18.9157 9.07384C18.8648 9.02327 18.8035 8.98426 18.7362 8.95947C18.6688 8.93468 18.5969 8.92469 18.5253 8.93017C18.4216 8.92475 18.3186 8.95041 18.2295 9.00385C18.1404 9.05729 18.0693 9.13609 18.0253 9.23017L12.7623 17.6142L10.0283 14.0392C9.97791 13.9513 9.90504 13.8784 9.81717 13.8279C9.72931 13.7775 9.6296 13.7514 9.52829 13.7522C9.454 13.7474 9.37952 13.7582 9.30967 13.784C9.23982 13.8098 9.17617 13.8499 9.12282 13.9019C9.06947 13.9538 9.02762 14.0164 8.99996 14.0855C8.97231 14.1546 8.95948 14.2288 8.96229 14.3032C8.9702 14.4604 9.02998 14.6105 9.13229 14.7302L12.1733 18.6042C12.2383 18.7072 12.3281 18.7923 12.4345 18.8517C12.5409 18.9111 12.6605 18.9429 12.7823 18.9442Z" fill="url(#paint0_linear_9205_24261)"/>
<defs>
<linearGradient id="paint0_linear_9205_24261" x1="18.7931" y1="11.959" x2="15.8959" y2="20.5883" gradientUnits="userSpaceOnUse">
<stop stop-color="#323B3E"/>
<stop offset="1" stop-color="#171C1E"/>
</linearGradient>
</defs>
</svg>
