<svg width="41" height="44" viewBox="0 0 41 44" fill="none" xmlns="http://www.w3.org/2000/svg">
<path d="M0 0.199219L19 20.6992L41 43.1992H0V0.199219Z" fill="#FFC046"/>
<path d="M2.90841 20.1211L5.17411 22.447L6.094 21.551L3.8283 19.225L2.90841 20.1211ZM6.46742 27.1896C7.57131 28.3229 9.05851 28.4011 10.1218 27.3653L10.1288 27.3585C11.0907 26.4216 11.1222 25.0684 10.2057 24.1276C9.73556 23.6449 9.1441 23.4576 8.60722 23.5852L8.54589 23.5222L10.1061 22.2478L12.3786 24.5808L13.218 23.7631L10.1449 20.6082L6.92958 23.2835L7.81201 24.1894C7.97496 24.1397 8.15116 24.1317 8.3201 24.1512C8.62705 24.1794 8.91174 24.3247 9.16045 24.58C9.68173 25.1151 9.67885 25.8609 9.14021 26.3856L9.13321 26.3925C8.59107 26.9205 7.84186 26.9142 7.31377 26.372C6.85041 25.8963 6.81041 25.2605 7.10962 24.8259L7.12729 24.795L6.19375 23.8367L6.14819 23.8879C5.36317 24.7684 5.41464 26.1089 6.46742 27.1896ZM11.212 32.0604C12.4283 33.3091 14.1856 33.0697 15.8155 31.482L15.8225 31.4752C17.4559 29.8841 17.7343 28.1406 16.518 26.8919C15.3051 25.6467 13.5514 25.8758 11.918 27.4669L11.911 27.4737C10.2811 29.0614 9.9991 30.8152 11.212 32.0604ZM12.048 31.2461C11.4688 30.6515 11.8133 29.6547 12.9536 28.544L12.9606 28.5372C14.1043 27.4231 15.1029 27.1116 15.6821 27.7062C16.2647 28.3043 15.9271 29.2943 14.7833 30.4084L14.7764 30.4152C13.6361 31.5259 12.6306 31.8442 12.048 31.2461ZM17.6919 33.8912C18.4142 34.6327 19.3994 34.5524 20.2738 33.7006L20.2773 33.6972C21.1517 32.8455 21.2543 31.8662 20.532 31.1247C19.8131 30.3866 18.8281 30.46 17.9537 31.3118L17.9502 31.3152C17.0757 32.167 16.973 33.1532 17.6919 33.8912ZM16.1678 36.8891L24.5232 35.3689L23.7362 34.561L15.3808 36.0811L16.1678 36.8891ZM18.2515 33.3461C17.9551 33.0418 18.0995 32.5671 18.6486 32.0322L18.6521 32.0288C19.2047 31.4905 19.676 31.3655 19.9724 31.6698C20.2722 31.9776 20.1349 32.4454 19.5822 32.9837L19.5787 32.9871C19.0296 33.522 18.5514 33.6539 18.2515 33.3461ZM19.3685 40.3219C20.0908 41.0634 21.076 40.9831 21.9504 40.1313L21.9539 40.1279C22.8283 39.2762 22.931 38.2969 22.2087 37.5554C21.4898 36.8174 20.5047 36.8907 19.6303 37.7425L19.6268 37.7459C18.7524 38.5977 18.6497 39.5839 19.3685 40.3219ZM19.9282 39.7768C19.6318 39.4725 19.7761 38.9979 20.3252 38.4629L20.3287 38.4595C20.8814 37.9212 21.3526 37.7962 21.649 38.1005C21.9489 38.4083 21.8115 38.8761 21.2589 39.4144L21.2554 39.4178C20.7062 39.9527 20.228 40.0846 19.9282 39.7768Z" fill="black"/>
</svg>
